{
  "accessors": [
    {
      "bufferView": 2,
      "componentType": 5126,
      "count": 1386,
      "max": [
        0.999998927116394,
        0.9999992847442627,
        1.905348539352417
      ],
      "min": [
        -1.0,
        -0.9999992847442627,
        -0.9999996423721313
      ],
      "type": "VEC3"
    },
    {
      "bufferView": 2,
      "byteOffset": 16632,
      "componentType": 5126,
      "count": 1386,
      "max": [
        1.0,
        1.0,
        1.0
      ],
      "min": [
        -1.0,
        -1.0,
        -1.0
      ],
      "type": "VEC3"
    },
    {
      "bufferView": 1,
      "componentType": 5126,
      "count": 1386,
      "max": [
        0.875,
        1.0
      ],
      "min": [
        0.125,
        0.0
      ],
      "type": "VEC2"
    },
    {
      "bufferView": 0,
      "componentType": 5125,
      "count": 3498,
      "type": "SCALAR"
    },
    {
      "bufferView": 2,
      "byteOffset": 33264,
      "componentType": 5126,
      "count": 44,
      "max": [
        0.999998927116394,
        0.9999992847442627,
        1.905348539352417
      ],
      "min": [
        -1.0,
        -0.9999992847442627,
        0.9999996423721313
      ],
      "type": "VEC3"
    },
    {
      "bufferView": 2,
      "byteOffset": 33792,
      "componentType": 5126,
      "count": 44,
      "max": [
        1.0,
        0.7000638246536255,
        1.0
      ],
      "min": [
        -1.0,
        -0.7000638246536255,
        0.0
      ],
      "type": "VEC3"
    },
    {
      "bufferView": 1,
      "byteOffset": 11088,
      "componentType": 5126,
      "count": 44,
      "max": [
        0.875,
        1.0
      ],
      "min": [
        0.625,
        0.0
      ],
      "type": "VEC2"
    },
    {
      "bufferView": 0,
      "byteOffset": 13992,
      "componentType": 5125,
      "count": 78,
      "type": "SCALAR"
    },
    {
      "bufferView": 2,
      "byteOffset": 34320,
      "componentType": 5126,
      "count": 279,
      "max": [
        1.0,
        0.9999997615814209,
        1.4961624145507813
      ],
      "min": [
        -1.0,
        -0.9999997615814209,
        -0.9999997615814209
      ],
      "type": "VEC3"
    },
    {
      "bufferView": 2,
      "byteOffset": 37668,
      "componentType": 5126,
      "count": 279,
      "max": [
        1.0,
        1.0,
        1.0
      ],
      "min": [
        -1.0,
        -1.0,
        -1.0
      ],
      "type": "VEC3"
    },
    {
      "bufferView": 1,
      "byteOffset": 11440,
      "componentType": 5126,
      "count": 279,
      "max": [
        0.875,
        1.0
      ],
      "min": [
        0.125,
        0.0
      ],
      "type": "VEC2"
    },
    {
      "bufferView": 0,
      "byteOffset": 14304,
      "componentType": 5125,
      "count": 564,
      "type": "SCALAR"
    }
  ],
  "asset": {
    "extras": {
      "author": "NoTimeForAdventure (https://sketchfab.com/NoTimeForAdventure)",
      "license": "CC-BY-4.0 (http://creativecommons.org/licenses/by/4.0/)",
      "source": "https://sketchfab.com/3d-models/play-house-d5c3a1e1e27b46799a17f8575e1fb851",
      "title": "Play House"
    },
    "generator": "Sketchfab-12.68.0",
    "version": "2.0"
  },
  "bufferViews": [
    {
      "buffer": 0,
      "byteLength": 16560,
      "name": "floatBufferViews",
      "target": 34963
    },
    {
      "buffer": 0,
      "byteLength": 13672,
      "byteOffset": 16560,
      "byteStride": 8,
      "name": "floatBufferViews",
      "target": 34962
    },
    {
      "buffer": 0,
      "byteLength": 41016,
      "byteOffset": 30232,
      "byteStride": 12,
      "name": "floatBufferViews",
      "target": 34962
    }
  ],
  "buffers": [
    {
      "byteLength": 71248,
      "uri": "scene.bin"
    }
  ],
  "materials": [
    {
      "doubleSided": true,
      "name": "Material.002",
      "pbrMetallicRoughness": {
        "baseColorFactor": [
          0.8,
          0.00450343,
          0.0,
          1.0
        ],
        "metallicFactor": 0.0,
        "roughnessFactor": 0.9612487511829196
      }
    },
    {
      "doubleSided": true,
      "name": "Material.006",
      "pbrMetallicRoughness": {
        "baseColorFactor": [
          0.00471481,
          0.0,
          0.8,
          1.0
        ],
        "metallicFactor": 0.0,
        "roughnessFactor": 0.9868603349278084
      }
    },
    {
      "doubleSided": true,
      "name": "Material.003",
      "pbrMetallicRoughness": {
        "baseColorFactor": [
          0.732343,
          0.8,
          0.0,
          1.0
        ],
        "metallicFactor": 0.0,
        "roughnessFactor": 0.8372464233815833
      }
    }
  ],
  "meshes": [
    {
      "name": "Cube.001_Material.002_0",
      "primitives": [
        {
          "attributes": {
            "NORMAL": 1,
            "POSITION": 0,
            "TEXCOORD_0": 2
          },
          "indices": 3,
          "material": 0,
          "mode": 4
        }
      ]
    },
    {
      "name": "Cube.001_Material.006_0",
      "primitives": [
        {
          "attributes": {
            "NORMAL": 5,
            "POSITION": 4,
            "TEXCOORD_0": 6
          },
          "indices": 7,
          "material": 1,
          "mode": 4
        }
      ]
    },
    {
      "name": "Cube.002_Material.003_0",
      "primitives": [
        {
          "attributes": {
            "NORMAL": 9,
            "POSITION": 8,
            "TEXCOORD_0": 10
          },
          "indices": 11,
          "material": 2,
          "mode": 4
        }
      ]
    }
  ],
  "nodes": [
    {
      "children": [
        1
      ],
      "matrix": [
        1.0,
        0.0,
        0.0,
        0.0,
        0.0,
        2.220446049250313e-16,
        -1.0,
        0.0,
        0.0,
        1.0,
        2.220446049250313e-16,
        0.0,
        0.0,
        0.0,
        0.0,
        1.0
      ],
      "name": "Sketchfab_model"
    },
    {
      "children": [
        2
      ],
      "matrix": [
        0.009999999776482582,
        0.0,
        0.0,
        0.0,
        0.0,
        0.0,
        0.009999999776482582,
        0.0,
        0.0,
        -0.009999999776482582,
        0.0,
        0.0,
        0.0,
        0.0,
        0.0,
        1.0
      ],
      "name": "0f37f13a4c0140c3b241792aca651a32.fbx"
    },
    {
      "children": [
        3,
        6
      ],
      "name": "RootNode"
    },
    {
      "children": [
        4,
        5
      ],
      "matrix": [
        606.2040405273438,
        0.0,
        0.0,
        0.0,
        -0.0,
        -0.00011563995269629496,
        -709.7929687499907,
        0.0,
        0.0,
        595.1874389648359,
        -9.696834192163654e-05,
        0.0,
        -606.847412109375,
        237.97451782226563,
        0.0,
        1.0
      ],
      "name": "Cube.001"
    },
    {
      "mesh": 0,
      "name": "Cube.001_Material.002_0"
    },
    {
      "mesh": 1,
      "name": "Cube.001_Material.006_0"
    },
    {
      "children": [
        7
      ],
      "matrix": [
        13.80232464952092,
        0.0,
        20.017880732294586,
        0.0,
        256.59205998544525,
        -1.362367226224613e-05,
        -176.92017260822718,
        0.0,
        1.2608910854719833e-05,
        350.3800048828122,
        -8.693841467678488e-06,
        0.0,
        267.5755615234375,
        0.0,
        148.15098571777344,
        1.0
      ],
      "name": "Cube.002"
    },
    {
      "mesh": 2,
      "name": "Cube.002_Material.003_0"
    }
  ],
  "scene": 0,
  "scenes": [
    {
      "name": "Sketchfab_Scene",
      "nodes": [
        0
      ]
    }
  ]
}
